<svg width="139" height="28" viewBox="0 0 139 28" fill="none" xmlns="http://www.w3.org/2000/svg">
<path d="M136.22 21.1093V11.2308L132.132 21.1093H129.761L125.582 11.336V21.1336H122.884V6.93118H126.564L130.897 17.1417L135.157 6.93118H139V21.0526H136.22V21.1093Z" fill="white"/>
<path d="M107.259 16.0891V6.93118H110.039V15.8381C110.039 17.7004 111.102 18.6721 112.737 18.6721C114.372 18.6721 115.517 17.7004 115.517 15.8381V6.93118H118.297V16.0891C118.297 19.5709 115.844 21.4332 112.737 21.4332C109.63 21.4332 107.259 19.5709 107.259 16.0891Z" fill="white"/>
<path d="M100.464 11.1498C100.344 10.5587 100.014 10.0297 99.5342 9.65841C99.0543 9.28716 98.4562 9.09813 97.8479 9.12549C96.4579 9.12549 95.5584 10.0162 95.5584 10.9069C95.5584 11.7976 96.049 12.2834 97.112 12.5263L99.1561 12.9312C101.773 13.417 103.163 15.1174 103.163 17.0607C103.163 19.247 101.282 21.4332 97.9296 21.4332C94.0867 21.4332 92.4432 19.004 92.2061 17.0607L94.8307 16.4129C94.8995 17.1846 95.273 17.8982 95.8701 18.3986C96.4673 18.8989 97.2397 19.1456 98.0196 19.085C99.4913 19.085 100.391 18.3563 100.391 17.3846C100.391 16.5749 99.7366 15.9271 98.6737 15.6842L96.6296 15.2793C94.3401 14.7935 92.8684 13.417 92.8684 11.2308C92.8684 8.72064 95.1578 6.85019 97.856 6.85019C101.372 6.85019 102.68 8.96355 103.007 10.502L100.464 11.1498Z" fill="white"/>
<path d="M81.4868 6.60727C82.471 6.58394 83.4498 6.75885 84.3637 7.1214C85.2776 7.48394 86.1076 8.02657 86.8034 8.71636C87.4992 9.40616 88.0462 10.2287 88.4113 11.1342C88.7764 12.0397 88.952 13.0091 88.9273 13.9838C88.8633 15.8968 88.0509 17.7103 86.6618 19.0411C85.2726 20.372 83.4155 21.116 81.4827 21.116C79.5499 21.116 77.6927 20.372 76.3036 19.0411C74.9144 17.7103 74.102 15.8968 74.038 13.9838C74.0133 13.0084 74.1891 12.0383 74.5547 11.1322C74.9203 10.2262 75.468 9.40328 76.1647 8.71337C76.8614 8.02346 77.6924 7.48101 78.6073 7.11896C79.5222 6.75691 80.5018 6.58282 81.4868 6.60727ZM81.4868 18.753C82.105 18.7639 82.719 18.6486 83.2903 18.4143C83.8616 18.18 84.3782 17.8317 84.8077 17.3911C85.2372 16.9506 85.5706 16.4272 85.787 15.8535C86.0034 15.2799 86.0982 14.6682 86.0656 14.0567C86.0916 13.4499 85.9934 12.8443 85.7768 12.2761C85.5603 11.7079 85.2299 11.189 84.8056 10.7506C84.3812 10.3122 83.8717 9.96329 83.3077 9.72495C82.7437 9.48662 82.1368 9.36375 81.5235 9.36375C80.9103 9.36375 80.3034 9.48662 79.7394 9.72495C79.1754 9.96329 78.6658 10.3122 78.2415 10.7506C77.8172 11.189 77.4868 11.7079 77.2703 12.2761C77.0537 12.8443 76.9555 13.4499 76.9815 14.0567C76.9396 14.6646 77.0255 15.2746 77.2338 15.848C77.4421 16.4214 77.7683 16.9457 78.1917 17.3879C78.6152 17.83 79.1266 18.1804 79.6938 18.4167C80.261 18.6531 80.8715 18.7704 81.4868 18.7611V18.753Z" fill="white"/>
<path d="M61.6833 21.1093V6.93118H70.7674V9.53037H64.4633V13.0122H70.1132V15.5223H64.5451V21.0526H61.6833V21.1093Z" fill="white"/>
<path d="M53.5068 21.1093L46.9656 11.0688V21.1093H44.1856V6.93118H47.7015L53.7603 16.251V6.93118H56.5648V21.0526H53.5395L53.5068 21.1093Z" fill="white"/>
<path d="M36.0746 21.1093V6.93118H38.9445V21.0526H36.0746V21.1093Z" fill="white"/>
<path d="M23.2866 8.69636H19.6971V5.34413C19.6971 3.92958 19.1308 2.57273 18.1223 1.57097C17.1138 0.569218 15.7454 0.00428652 14.317 0C12.8928 0.00425925 11.5281 0.565852 10.5203 1.56236C9.51252 2.55887 8.94336 3.9095 8.93689 5.31984V8.67207H12.5591C14.4587 8.67207 16.2805 9.41938 17.6238 10.7496C18.967 12.0798 19.7217 13.884 19.7217 15.7652V19.3279H23.2866C24.7107 19.3215 26.0746 18.7579 27.0809 17.7599C28.0871 16.7618 28.6542 15.4103 28.6585 14C28.6478 12.5939 28.0779 11.2486 27.0723 10.2558C26.0667 9.26301 24.7065 8.70271 23.2866 8.69636Z" fill="#6CACE4"/>
<path d="M16.0995 19.3522C14.2005 19.3501 12.3799 18.6021 11.0371 17.2723C9.69437 15.9426 8.93905 14.1397 8.93688 12.2591V8.69635H5.38012C3.95455 8.70062 2.5886 9.26333 1.58057 10.2616C0.572531 11.2598 0.0043134 12.6125 0 14.0243C0.0043134 15.436 0.572531 16.7887 1.58057 17.787C2.5886 18.7852 3.95455 19.348 5.38012 19.3522H8.96141V22.6721C8.96573 24.0838 9.53394 25.4365 10.542 26.4348C11.55 27.433 12.916 27.9957 14.3415 28C15.7671 27.9957 17.133 27.433 18.1411 26.4348C19.1491 25.4365 19.7173 24.0838 19.7216 22.6721V19.3522H16.0995Z" fill="#F68D2E"/>
<path d="M12.5591 8.69635H8.93689V12.2591C8.93905 14.1397 9.69438 15.9426 11.0372 17.2723C12.3799 18.6021 14.2005 19.3501 16.0995 19.3522H19.7217V15.7895C19.7217 13.9083 18.967 12.1041 17.6238 10.7739C16.2805 9.44366 14.4587 8.69635 12.5591 8.69635Z" fill="#13294B"/>
</svg>
